# xmcd
#
# Track frame offsets:
#	150
#	10374
#	16525
#	28648
#	38184
#	49644
#	59655
#	71084
#	84948
#	97549
#	108133
#	120342
#	132739
#	142858
#	153542
#	163855
#	174613
#	187441
#	197535
#	210974
#	222125
#	233080
#	246938
#	259943
#	273508
#	284606
#	296287
#
# Disc length: 4103 seconds
#
# Revision: 1
# Processed by: cddbd v1.5.2PL0 Copyright (c) Steve Scherf et al.
# Submitted via: audiograbber 1.83.01
#
DISCID=8010051b
DTITLE=Nelson Willie - Mr. Record Man
DYEAR=2017
DGENRE=
TTITLE0=Lumberjack
TTITLE1=No Place For Me
TTITLE2=The Storm Has Just Begun
TTITLE3=Man With The Blues
TTITLE4=What A Way To Live
TTITLE5=Misery Mansion
TTITLE6=Night Life
TTITLE7=Rainy Day Blues
TTITLE8=Mr. Record Man
TTITLE9=The Part Where I Cry
TTITLE10=Chain Of Love
TTITLE11=Willingly
TTITLE12=Touch Me
TTITLE13=Where My House Lives
TTITLE14=You Dream About Me
TTITLE15=Is This My Destiny
TTITLE16=Wake Me When It's Over
TTITLE17=There's Gonna Be Love In My House
TTITLE18=The Last Letter
TTITLE19=Half A Man
TTITLE20=Hello Walls
TTITLE21=Funny How Time Slips Away
TTITLE22=Crazy
TTITLE23=Three Days
TTITLE24=One Step Beyond
TTITLE25=Undo The Right
TTITLE26=Darkness On The Face Of The Earth
EXTD=
EXTT0=
EXTT1=
EXTT2=
EXTT3=
EXTT4=
EXTT5=
EXTT6=
EXTT7=
EXTT8=
EXTT9=
EXTT10=
EXTT11=
EXTT12=
EXTT13=
EXTT14=
EXTT15=
EXTT16=
EXTT17=
EXTT18=
EXTT19=
EXTT20=
EXTT21=
EXTT22=
EXTT23=
EXTT24=
EXTT25=
EXTT26=
PLAYORDER=
